<mxfile host="app.diagrams.net" agent="Mozilla/5.0 (Macintosh; Intel Mac OS X 10_15_7) AppleWebKit/605.1.15 (KHTML, like Gecko) Version/18.1 Safari/605.1.15" version="26.2.9">
  <diagram name="页-1" id="KkJPjx12Ec7EY-ToU70F">
    <mxGraphModel dx="2380" dy="1198" grid="1" gridSize="10" guides="1" tooltips="1" connect="1" arrows="1" fold="1" page="1" pageScale="1" pageWidth="1169" pageHeight="827" math="1" shadow="0">
      <root>
        <mxCell id="0" />
        <mxCell id="1" parent="0" />
        <UserObject label="" tags="背景" id="rbftyvLKrvMqdOADE280-68">
          <mxCell style="vsdxID=373;fillColor=none;gradientColor=none;shape=stencil(nZFLDsIwDERP4y0yiUBiXcoFOEFEDLEISZWm/E5PWhepdMGiWdkzz7Y0AV21zjQECtuc4pUebLMDvQelODhKnEsFugZdnWOiS4pdsNI3ppAKB4WszKx7WqFJpyO/adQ2q93P2wokW27x3l9/CotivcZJlP4gqOcwQb/mIvgPuhCcnS/FkI8kx95LvFN/nmeR5C90/QE=);dashed=1;strokeColor=#c05046;strokeWidth=3;points=[[1,0.5,0],[0.5,0,0],[0.5,0.5,0],[0.5,0.5,0]];labelBackgroundColor=none;rounded=1;html=1;whiteSpace=wrap;" vertex="1" parent="1">
            <mxGeometry x="734" y="889" width="400" height="78" as="geometry" />
          </mxCell>
        </UserObject>
        <UserObject label="" tags="背景" id="rbftyvLKrvMqdOADE280-23">
          <mxCell style="vsdxID=319;fillColor=none;gradientColor=none;shape=stencil(nZFLDsIwDERP4y0yiUBiXcoFOEFEDLEISZWm/E5PWhepdMGiWdkzz7Y0AV21zjQECtuc4pUebLMDvQelODhKnEsFugZdnWOiS4pdsNI3ppAKB4WszKx7WqFJpyO/adQ2q93P2wokW27x3l9/CotivcZJlP4gqOcwQb/mIvgPuhCcnS/FkI8kx95LvFN/nmeR5C90/QE=);dashed=1;strokeColor=#00b050;strokeWidth=3;points=[[1,0.5,0],[0.5,0,0],[0.5,0.5,0],[0.5,0.5,0]];labelBackgroundColor=none;rounded=1;html=1;whiteSpace=wrap;" vertex="1" parent="1">
            <mxGeometry x="744" y="770" width="387" height="78" as="geometry" />
          </mxCell>
        </UserObject>
        <UserObject label="&lt;span style=&quot;caret-color: rgb(237, 12, 12); color: rgb(0, 0, 0); font-family: &amp;quot;Times New Roman&amp;quot;; font-size: 18px; font-style: normal; font-variant-caps: normal; font-weight: 400; letter-spacing: normal; orphans: auto; text-align: center; text-indent: 0px; text-transform: none; white-space: normal; widows: auto; word-spacing: 0px; -webkit-text-stroke-width: 0px; background-color: rgb(236, 236, 236); text-decoration: none; display: inline !important; float: none;&quot;&gt;\(t_p-T_s\)&lt;/span&gt;" tags="背景" id="rbftyvLKrvMqdOADE280-22">
          <mxCell style="vsdxID=318;fillColor=none;gradientColor=none;shape=stencil(nZFLDsIwDERP4y0yiUBiXcoFOEFEDLEISZWm/E5PWhepdMGiWdkzz7Y0AV21zjQECtuc4pUebLMDvQelODhKnEsFugZdnWOiS4pdsNI3ppAKB4WszKx7WqFJpyO/adQ2q93P2wokW27x3l9/CotivcZJlP4gqOcwQb/mIvgPuhCcnS/FkI8kx95LvFN/nmeR5C90/QE=);dashed=1;strokeColor=#ff0000;strokeWidth=3;points=[[1,0.5,0],[0.5,0,0],[0.5,0.5,0],[0.5,0.5,0]];labelBackgroundColor=none;rounded=1;html=1;whiteSpace=wrap;" vertex="1" parent="1">
            <mxGeometry x="743" y="656" width="390" height="78" as="geometry" />
          </mxCell>
        </UserObject>
        <UserObject label="&lt;div style=&quot;font-size: 1px&quot;&gt;&lt;font style=&quot;font-size:22.58px;font-family:Times New Roman;color:#000000;direction:ltr;letter-spacing:0px;line-height:120%;opacity:1&quot;&gt;Communication Network&lt;/font&gt;&lt;font style=&quot;font-size:22.58px;font-family:Times New Roman;color:#000000;direction:ltr;letter-spacing:0px;line-height:120%;opacity:1&quot;&gt;&lt;br/&gt;&lt;/font&gt;&lt;/div&gt;" tags="流程图" id="rbftyvLKrvMqdOADE280-2">
          <mxCell style="verticalAlign=middle;align=center;overflow=width;vsdxID=235;rotation=90;fillColor=#dae8fc;shape=stencil(nZBLDoAgDERP0z3SIyjew0SURgSD+Lu9kMZoXLhwN9O+tukAlrNpJg1SzDH4QW/URgNYgZTkjA4UkwJUgGXng+6DX1zLfmoymdXo17xh5zmRJ6Q42BWCfc2oJfdAr+Yv+AP9Cb7OJ3H/2JG1HNGz/84klThPVCc=);strokeColor=#6c8ebf;shadow=1;spacingTop=-1;spacingBottom=-1;spacingLeft=-1;spacingRight=-1;points=[[1,0.5,0],[0.5,0.5,0],[0.5,0,0]];labelBackgroundColor=none;rounded=0;html=1;whiteSpace=wrap;" vertex="1" parent="1">
            <mxGeometry x="58.5" y="823.5" width="801" height="51" as="geometry" />
          </mxCell>
        </UserObject>
        <UserObject label="&lt;div style=&quot;font-size: 1px&quot;&gt;&lt;font style=&quot;font-size: 19.76px; font-family: &amp;quot;Times New Roman&amp;quot;; color: rgb(0, 0, 0); direction: ltr; letter-spacing: 0px; line-height: 120%; opacity: 1;&quot;&gt;Linearization&lt;/font&gt;&lt;font style=&quot;font-size: 19.76px; font-family: &amp;quot;Times New Roman&amp;quot;; color: rgb(0, 0, 0); direction: ltr; letter-spacing: 0px; line-height: 120%; opacity: 1;&quot;&gt;&lt;br&gt;&lt;/font&gt;&lt;font style=&quot;font-size: 19.76px; font-family: &amp;quot;Times New Roman&amp;quot;; color: rgb(0, 0, 0); direction: ltr; letter-spacing: 0px; line-height: 120%; opacity: 1;&quot;&gt;Model&lt;br&gt;&lt;/font&gt;&lt;/div&gt;" tags="流程图" id="rbftyvLKrvMqdOADE280-4">
          <mxCell style="verticalAlign=middle;align=center;overflow=width;vsdxID=249;fillColor=#ab9ac0;gradientColor=none;shape=stencil(nZBLDoAgDERP0z3SIyjew0SURgSD+Lu9kMZoXLhwN9O+tukAlrNpJg1SzDH4QW/URgNYgZTkjA4UkwJUgGXng+6DX1zLfmoymdXo17xh5zmRJ6Q42BWCfc2oJfdAr+Yv+AP9Cb7OJ3H/2JG1HNGz/84klThPVCc=);strokeColor=#000000;spacingTop=-1;spacingBottom=-1;spacingLeft=-1;spacingRight=-1;points=[[1,0.5,0],[0.5,0.5,0],[0.5,0,0]];labelBackgroundColor=none;rounded=0;html=1;whiteSpace=wrap;" vertex="1" parent="1">
            <mxGeometry x="541" y="1001" width="160" height="61" as="geometry" />
          </mxCell>
        </UserObject>
        <UserObject label="" tags="连接线" id="rbftyvLKrvMqdOADE280-5">
          <mxCell style="vsdxID=250;edgeStyle=none;startArrow=none;endArrow=block;startSize=5;endSize=5;strokeWidth=3;strokeColor=#0070c0;spacingTop=0;spacingBottom=0;spacingLeft=0;spacingRight=0;verticalAlign=middle;html=1;labelBackgroundColor=#ffffff;rounded=0;" edge="1" parent="1">
            <mxGeometry relative="1" as="geometry">
              <Array as="points" />
              <mxPoint x="852" y="1031" as="sourcePoint" />
              <mxPoint x="706" y="1031" as="targetPoint" />
            </mxGeometry>
          </mxCell>
        </UserObject>
        <mxCell id="rbftyvLKrvMqdOADE280-6" value="&lt;div style=&quot;font-size: 1px&quot;&gt;&lt;/div&gt;" style="text;vsdxID=250;edgeStyle=none;startArrow=none;endArrow=block;startSize=5;endSize=5;strokeWidth=3;strokeColor=none;spacingTop=0;spacingBottom=0;spacingLeft=0;spacingRight=0;verticalAlign=middle;html=1;labelBackgroundColor=#ffffff;rounded=0;align=center;overflow=width;fillColor=none;gradientColor=none;whiteSpace=wrap;;html=1;;rotation=0.09000000000003183" vertex="1" parent="rbftyvLKrvMqdOADE280-5">
          <mxGeometry width="56.44" height="24.84" relative="1" as="geometry">
            <mxPoint x="-28.22" y="-12.42" as="offset" />
          </mxGeometry>
        </mxCell>
        <UserObject label="&lt;div style=&quot;font-size: 1px&quot;&gt;&lt;font style=&quot;font-size:16.93px;font-family:SimSun;color:#000000;direction:ltr;letter-spacing:0px;line-height:120%;opacity:1&quot;&gt;&lt;b&gt;Taylor&lt;br/&gt;&lt;/b&gt;&lt;/font&gt;&lt;/div&gt;" tags="背景" id="rbftyvLKrvMqdOADE280-7">
          <mxCell style="verticalAlign=middle;align=center;overflow=width;vsdxID=252;fillColor=none;gradientColor=none;shape=stencil(nZBLDoAgDERP0z3SIyjew0SURgSD+Lu9kMZoXLhwN9O+tukAlrNpJg1SzDH4QW/URgNYgZTkjA4UkwJUgGXng+6DX1zLfmoymdXo17xh5zmRJ6Q42BWCfc2oJfdAr+Yv+AP9Cb7OJ3H/2JG1HNGz/84klThPVCc=);strokeColor=none;spacingTop=-1;spacingBottom=-1;spacingLeft=-1;spacingRight=-1;points=[];labelBackgroundColor=none;rounded=0;html=1;whiteSpace=wrap;" vertex="1" parent="1">
            <mxGeometry x="730" y="1008" width="84" height="21" as="geometry" />
          </mxCell>
        </UserObject>
        <UserObject label="" tags="连接线" id="rbftyvLKrvMqdOADE280-9">
          <mxCell style="vsdxID=259;edgeStyle=none;startArrow=none;endArrow=block;startSize=5;endSize=5;strokeWidth=3;strokeColor=#0070c0;spacingTop=0;spacingBottom=0;spacingLeft=0;spacingRight=0;verticalAlign=middle;html=1;labelBackgroundColor=#FFFFFF;rounded=0;entryX=1;entryY=0.5;entryDx=0;entryDy=0;entryPerimeter=0;" edge="1" parent="1" target="rbftyvLKrvMqdOADE280-67">
            <mxGeometry relative="1" as="geometry">
              <mxPoint y="-1" as="offset" />
              <Array as="points">
                <mxPoint x="1123" y="929" />
              </Array>
              <mxPoint x="1123" y="642" as="sourcePoint" />
              <mxPoint x="1060" y="928" as="targetPoint" />
            </mxGeometry>
          </mxCell>
        </UserObject>
        <UserObject label="&lt;div&gt;&lt;span style=&quot;color: rgb(0, 0, 0);&quot;&gt;&lt;font face=&quot;Times New Roman&quot;&gt;&lt;font style=&quot;font-size: 19.76px; direction: ltr; letter-spacing: 0px; line-height: 120%; opacity: 1; color: rgb(0, 0, 0);&quot;&gt;&amp;nbsp;&lt;/font&gt;&lt;font style=&quot;direction: ltr; letter-spacing: 0px; line-height: 120%; opacity: 1; font-size: 18px; color: rgb(0, 0, 0);&quot;&gt;Target&lt;/font&gt;&lt;font style=&quot;font-size: 19.76px; direction: ltr; letter-spacing: 0px; line-height: 120%; opacity: 1; color: rgb(0, 0, 0);&quot;&gt; &lt;/font&gt;&lt;font style=&quot;direction: ltr; letter-spacing: 0px; line-height: 120%; opacity: 1; color: rgb(0, 0, 0);&quot;&gt;&lt;font style=&quot;font-size: 18px;&quot;&gt;Signal&lt;/font&gt;&lt;br&gt;&lt;/font&gt;&lt;/font&gt;&lt;/span&gt;&lt;/div&gt;&lt;div&gt;&lt;font style=&quot;direction: ltr; letter-spacing: 0px; line-height: 120%; opacity: 1; color: rgb(0, 0, 0);&quot;&gt;&lt;span style=&quot;caret-color: rgb(237, 12, 12); color: rgb(0, 0, 0);&quot;&gt;&lt;font face=&quot;Times New Roman&quot; style=&quot;font-size: 18px;&quot;&gt;at time \(t_p-T_s\)&lt;/font&gt;&lt;/span&gt;&lt;/font&gt;&lt;/div&gt;" tags="流程图" id="rbftyvLKrvMqdOADE280-10">
          <mxCell style="verticalAlign=middle;align=center;overflow=width;vsdxID=280;fillColor=#92cddc;gradientColor=none;shape=stencil(nZBLDoAgDERP0z3SIyjew0SURgSD+Lu9kMZoXLhwN9O+tukAlrNpJg1SzDH4QW/URgNYgZTkjA4UkwJUgGXng+6DX1zLfmoymdXo17xh5zmRJ6Q42BWCfc2oJfdAr+Yv+AP9Cb7OJ3H/2JG1HNGz/84klThPVCc=);strokeColor=#000000;spacingTop=-1;spacingBottom=-1;spacingLeft=-1;spacingRight=-1;points=[[1,0.5,0],[0.5,0.5,0],[0.5,0,0]];labelBackgroundColor=none;rounded=0;html=1;whiteSpace=wrap;" vertex="1" parent="1">
            <mxGeometry x="866" y="667" width="160" height="61" as="geometry" />
          </mxCell>
        </UserObject>
        <UserObject label="&lt;div style=&quot;font-size: 1px&quot;&gt;&lt;font style=&quot;font-size:22.58px;font-family:Times New Roman;color:#000000;direction:ltr;letter-spacing:0px;line-height:120%;opacity:1&quot;&gt;Controlller&lt;/font&gt;&lt;font style=&quot;font-size:22.58px;font-family:Times New Roman;color:#000000;direction:ltr;letter-spacing:0px;line-height:120%;opacity:1&quot;&gt;&lt;br/&gt;&lt;/font&gt;&lt;/div&gt;" tags="流程图" id="rbftyvLKrvMqdOADE280-13">
          <mxCell style="verticalAlign=middle;align=center;overflow=width;vsdxID=288;rotation=90;fillColor=#d5e8d4;shape=stencil(nZBLDoAgDERP0z3SIyjew0SURgSD+Lu9kMZoXLhwN9O+tukAlrNpJg1SzDH4QW/URgNYgZTkjA4UkwJUgGXng+6DX1zLfmoymdXo17xh5zmRJ6Q42BWCfc2oJfdAr+Yv+AP9Cb7OJ3H/2JG1HNGz/84klThPVCc=);strokeColor=#82b366;shadow=1;spacingTop=-1;spacingBottom=-1;spacingLeft=-1;spacingRight=-1;points=[[1,0.5,0],[0.5,0.5,0],[0.5,0,0]];labelBackgroundColor=none;rounded=0;html=1;whiteSpace=wrap;" vertex="1" parent="1">
            <mxGeometry x="758" y="812" width="820" height="51" as="geometry" />
          </mxCell>
        </UserObject>
        <UserObject label="" tags="连接线" id="rbftyvLKrvMqdOADE280-14">
          <mxCell style="vsdxID=289;edgeStyle=none;startArrow=none;endArrow=block;startSize=5;endSize=5;strokeWidth=3;strokeColor=#0070c0;spacingTop=0;spacingBottom=0;spacingLeft=0;spacingRight=0;verticalAlign=middle;html=1;labelBackgroundColor=#FFFFFF;rounded=0;entryX=1;entryY=0.5;entryDx=0;entryDy=0;entryPerimeter=0;" edge="1" parent="1" target="rbftyvLKrvMqdOADE280-10">
            <mxGeometry relative="1" as="geometry">
              <mxPoint as="offset" />
              <Array as="points" />
              <mxPoint x="1122" y="697" as="sourcePoint" />
              <mxPoint x="1026" y="698" as="targetPoint" />
            </mxGeometry>
          </mxCell>
        </UserObject>
        <UserObject label="&lt;div style=&quot;font-size: 1px&quot;&gt;&lt;font face=&quot;Times New Roman&quot; style=&quot;font-size: 19.76px; color: rgb(0, 0, 0); direction: ltr; letter-spacing: 0px; line-height: 120%; opacity: 1;&quot;&gt;&lt;div style=&quot;caret-color: rgb(0, 0, 0); color: rgb(0, 0, 0); font-size: 12px;&quot;&gt;&lt;span style=&quot;color: rgb(0, 0, 0);&quot;&gt;&lt;font style=&quot;font-size: 19.76px; direction: ltr; letter-spacing: 0px; line-height: 23.712px; opacity: 1; color: rgb(0, 0, 0);&quot;&gt;&amp;nbsp;&lt;/font&gt;&lt;font style=&quot;direction: ltr; letter-spacing: 0px; line-height: 21.6px; opacity: 1; font-size: 18px; color: rgb(0, 0, 0);&quot;&gt;Target&lt;/font&gt;&lt;font style=&quot;font-size: 19.76px; direction: ltr; letter-spacing: 0px; line-height: 23.712px; opacity: 1; color: rgb(0, 0, 0);&quot;&gt;&amp;nbsp;&lt;/font&gt;&lt;font style=&quot;direction: ltr; letter-spacing: 0px; line-height: 14.4px; opacity: 1; color: rgb(0, 0, 0);&quot;&gt;&lt;font style=&quot;font-size: 18px;&quot;&gt;Signal&lt;/font&gt;&lt;br&gt;&lt;/font&gt;&lt;/span&gt;&lt;/div&gt;&lt;div style=&quot;caret-color: rgb(0, 0, 0); color: rgb(0, 0, 0); font-size: 12px;&quot;&gt;&lt;font style=&quot;direction: ltr; letter-spacing: 0px; line-height: 14.4px; opacity: 1; color: rgb(0, 0, 0);&quot;&gt;&lt;span style=&quot;caret-color: rgb(237, 12, 12); color: rgb(0, 0, 0);&quot;&gt;&lt;font style=&quot;font-size: 18px;&quot;&gt;at time \(t_p\)&lt;/font&gt;&lt;/span&gt;&lt;/font&gt;&lt;/div&gt;&lt;/font&gt;&lt;/div&gt;" tags="流程图" id="rbftyvLKrvMqdOADE280-15">
          <mxCell style="verticalAlign=middle;align=center;overflow=width;vsdxID=294;fillColor=#92cddc;gradientColor=none;shape=stencil(nZBLDoAgDERP0z3SIyjew0SURgSD+Lu9kMZoXLhwN9O+tukAlrNpJg1SzDH4QW/URgNYgZTkjA4UkwJUgGXng+6DX1zLfmoymdXo17xh5zmRJ6Q42BWCfc2oJfdAr+Yv+AP9Cb7OJ3H/2JG1HNGz/84klThPVCc=);strokeColor=#000000;spacingTop=-1;spacingBottom=-1;spacingLeft=-1;spacingRight=-1;points=[[1,0.5,0],[0.5,0.5,0],[0.5,0,0]];labelBackgroundColor=none;rounded=0;html=1;whiteSpace=wrap;" vertex="1" parent="1">
            <mxGeometry x="867" y="779" width="160" height="61" as="geometry" />
          </mxCell>
        </UserObject>
        <UserObject label="" tags="连接线" id="rbftyvLKrvMqdOADE280-20">
          <mxCell style="vsdxID=309;edgeStyle=none;startArrow=none;endArrow=block;startSize=5;endSize=5;strokeWidth=3;strokeColor=#0070c0;spacingTop=0;spacingBottom=0;spacingLeft=0;spacingRight=0;verticalAlign=middle;html=1;labelBackgroundColor=#ffffff;rounded=0;" edge="1" parent="1">
            <mxGeometry relative="1" as="geometry">
              <Array as="points" />
              <mxPoint x="866" y="813" as="sourcePoint" />
              <mxPoint x="720" y="813" as="targetPoint" />
            </mxGeometry>
          </mxCell>
        </UserObject>
        <UserObject label="&lt;div&gt;&lt;font style=&quot;font-family: &amp;quot;Times New Roman&amp;quot;; color: rgb(0, 0, 0); direction: ltr; letter-spacing: 0px; line-height: 120%; opacity: 1;&quot;&gt;&lt;span style=&quot;caret-color: rgb(0, 0, 0); color: rgb(0, 0, 0); font-family: Helvetica;&quot;&gt;&lt;font style=&quot;font-size: 18px;&quot;&gt;PGV Mathematical Model&lt;/font&gt;&lt;/span&gt;&lt;br&gt;&lt;/font&gt;&lt;/div&gt;" tags="流程图" id="rbftyvLKrvMqdOADE280-24">
          <mxCell style="verticalAlign=middle;align=center;overflow=width;vsdxID=320;fillColor=#ab9ac0;gradientColor=none;shape=stencil(nZBLDoAgDERP0z3SIyjew0SURgSD+Lu9kMZoXLhwN9O+tukAlrNpJg1SzDH4QW/URgNYgZTkjA4UkwJUgGXng+6DX1zLfmoymdXo17xh5zmRJ6Q42BWCfc2oJfdAr+Yv+AP9Cb7OJ3H/2JG1HNGz/84klThPVCc=);strokeColor=#000000;spacingTop=-1;spacingBottom=-1;spacingLeft=-1;spacingRight=-1;points=[[1,0.5,0],[0.5,0.5,0],[0.5,0,0]];labelBackgroundColor=none;rounded=0;html=1;whiteSpace=wrap;" vertex="1" parent="1">
            <mxGeometry x="852" y="1000" width="160" height="61" as="geometry" />
          </mxCell>
        </UserObject>
        <UserObject label="&lt;div style=&quot;font-size: 1px&quot;&gt;&lt;font style=&quot;font-size:19.76px;font-family:Times New Roman;color:#000000;direction:ltr;letter-spacing:0px;line-height:120%;opacity:1&quot;&gt;FT-SO&lt;br/&gt;&lt;/font&gt;&lt;/div&gt;" tags="流程图" id="rbftyvLKrvMqdOADE280-46">
          <mxCell style="verticalAlign=middle;align=center;overflow=width;vsdxID=350;fillColor=#ffff00;gradientColor=none;shape=stencil(nZBLDoAgDERP0z3SIyjew0SURgSD+Lu9kMZoXLhwN9O+tukAlrNpJg1SzDH4QW/URgNYgZTkjA4UkwJUgGXng+6DX1zLfmoymdXo17xh5zmRJ6Q42BWCfc2oJfdAr+Yv+AP9Cb7OJ3H/2JG1HNGz/84klThPVCc=);strokeColor=#000000;spacingTop=-1;spacingBottom=-1;spacingLeft=-1;spacingRight=-1;points=[[1,0.5,0],[0.5,0.5,0],[0.5,0,0]];labelBackgroundColor=none;rounded=0;html=1;whiteSpace=wrap;" vertex="1" parent="1">
            <mxGeometry x="709" y="1198" width="105" height="40" as="geometry" />
          </mxCell>
        </UserObject>
        <UserObject label="" tags="连接线" id="rbftyvLKrvMqdOADE280-47">
          <mxCell style="vsdxID=351;edgeStyle=none;startArrow=none;endArrow=block;startSize=5;endSize=5;strokeWidth=3;strokeColor=#0070c0;spacingTop=0;spacingBottom=0;spacingLeft=0;spacingRight=0;verticalAlign=middle;html=1;labelBackgroundColor=#FFFFFF;rounded=0;" edge="1" parent="1">
            <mxGeometry relative="1" as="geometry">
              <mxPoint x="-1" as="offset" />
              <Array as="points">
                <mxPoint x="941" y="1217" />
              </Array>
              <mxPoint x="815" y="1217" as="sourcePoint" />
              <mxPoint x="941" y="1184" as="targetPoint" />
            </mxGeometry>
          </mxCell>
        </UserObject>
        <UserObject label="&lt;div&gt;&lt;font face=&quot;Times New Roman&quot; style=&quot;color: rgb(0, 0, 0); direction: ltr; letter-spacing: 0px; line-height: 120%; opacity: 1;&quot;&gt;&lt;div style=&quot;caret-color: rgb(0, 0, 0); color: rgb(0, 0, 0);&quot;&gt;&lt;span style=&quot;color: rgb(0, 0, 0);&quot;&gt;&lt;font style=&quot;direction: ltr; letter-spacing: 0px; line-height: 23.712px; opacity: 1; color: rgb(0, 0, 0);&quot;&gt;&amp;nbsp;&lt;/font&gt;&lt;font style=&quot;direction: ltr; letter-spacing: 0px; line-height: 21.6px; opacity: 1; color: rgb(0, 0, 0);&quot;&gt;Target&lt;/font&gt;&lt;font style=&quot;direction: ltr; letter-spacing: 0px; line-height: 23.712px; opacity: 1; color: rgb(0, 0, 0);&quot;&gt;&amp;nbsp;&lt;/font&gt;&lt;font style=&quot;direction: ltr; letter-spacing: 0px; line-height: 14.4px; opacity: 1; color: rgb(0, 0, 0);&quot;&gt;&lt;font&gt;Signal&lt;/font&gt;&lt;br&gt;&lt;/font&gt;&lt;/span&gt;&lt;/div&gt;&lt;div style=&quot;caret-color: rgb(0, 0, 0); color: rgb(0, 0, 0);&quot;&gt;&lt;font style=&quot;direction: ltr; letter-spacing: 0px; line-height: 14.4px; opacity: 1; color: rgb(0, 0, 0);&quot;&gt;&lt;span style=&quot;caret-color: rgb(237, 12, 12); color: rgb(0, 0, 0);&quot;&gt;&lt;font&gt;at time&lt;/font&gt;&lt;/span&gt;&lt;/font&gt;&lt;/div&gt;&lt;div style=&quot;caret-color: rgb(0, 0, 0); color: rgb(0, 0, 0);&quot;&gt;&lt;font style=&quot;direction: ltr; letter-spacing: 0px; line-height: 14.4px; opacity: 1; color: rgb(0, 0, 0);&quot;&gt;&lt;span style=&quot;caret-color: rgb(237, 12, 12); color: rgb(0, 0, 0);&quot;&gt;&lt;font&gt;&amp;nbsp;\(t_p+(N_c-1)T_s\)&lt;/font&gt;&lt;/span&gt;&lt;/font&gt;&lt;/div&gt;&lt;/font&gt;&lt;/div&gt;" tags="流程图" id="rbftyvLKrvMqdOADE280-67">
          <mxCell style="verticalAlign=middle;align=center;overflow=width;vsdxID=364;fillColor=#92cddc;gradientColor=none;shape=stencil(nZBLDoAgDERP0z3SIyjew0SURgSD+Lu9kMZoXLhwN9O+tukAlrNpJg1SzDH4QW/URgNYgZTkjA4UkwJUgGXng+6DX1zLfmoymdXo17xh5zmRJ6Q42BWCfc2oJfdAr+Yv+AP9Cb7OJ3H/2JG1HNGz/84klThPVCc=);strokeColor=#000000;spacingTop=-1;spacingBottom=-1;spacingLeft=-1;spacingRight=-1;points=[[1,0.5,0],[0.5,0.5,0],[0.5,0,0]];labelBackgroundColor=none;rounded=0;html=1;whiteSpace=wrap;fontSize=16;" vertex="1" parent="1">
            <mxGeometry x="873.5" y="897.5" width="129" height="62.5" as="geometry" />
          </mxCell>
        </UserObject>
        <UserObject label="" tags="连接线" id="rbftyvLKrvMqdOADE280-69">
          <mxCell style="vsdxID=374;edgeStyle=none;startArrow=none;endArrow=block;startSize=5;endSize=5;strokeWidth=3;strokeColor=#0070c0;spacingTop=0;spacingBottom=0;spacingLeft=0;spacingRight=0;verticalAlign=middle;html=1;labelBackgroundColor=#FFFFFF;rounded=0;" edge="1" parent="1">
            <mxGeometry relative="1" as="geometry">
              <mxPoint x="-1" as="offset" />
              <Array as="points" />
              <mxPoint x="1123" y="811" as="sourcePoint" />
              <mxPoint x="1027" y="811" as="targetPoint" />
            </mxGeometry>
          </mxCell>
        </UserObject>
        <UserObject label="" tags="连接线" id="rbftyvLKrvMqdOADE280-70">
          <mxCell style="vsdxID=376;edgeStyle=none;startArrow=none;endArrow=block;startSize=5;endSize=5;strokeWidth=3;strokeColor=#0070c0;spacingTop=0;spacingBottom=0;spacingLeft=0;spacingRight=0;verticalAlign=middle;html=1;labelBackgroundColor=#ffffff;rounded=0;" edge="1" parent="1">
            <mxGeometry relative="1" as="geometry">
              <Array as="points" />
              <mxPoint x="585" y="841" as="sourcePoint" />
              <mxPoint x="585" y="1002" as="targetPoint" />
            </mxGeometry>
          </mxCell>
        </UserObject>
        <mxCell id="rbftyvLKrvMqdOADE280-71" value="&lt;div style=&quot;font-size: 1px&quot;&gt;&lt;/div&gt;" style="text;vsdxID=376;edgeStyle=none;startArrow=none;endArrow=block;startSize=5;endSize=5;strokeWidth=3;strokeColor=none;spacingTop=0;spacingBottom=0;spacingLeft=0;spacingRight=0;verticalAlign=middle;html=1;labelBackgroundColor=#ffffff;rounded=0;align=center;overflow=width;fillColor=none;gradientColor=none;whiteSpace=wrap;;html=1;;rotation=270.3845899311293" vertex="1" parent="rbftyvLKrvMqdOADE280-70">
          <mxGeometry width="56.44" height="24.84" relative="1" as="geometry">
            <mxPoint x="-28.22" y="-12.42" as="offset" />
          </mxGeometry>
        </mxCell>
        <UserObject label="" tags="背景" id="rbftyvLKrvMqdOADE280-72">
          <mxCell style="vsdxID=379;fillColor=none;gradientColor=none;strokeColor=none;spacingTop=-1;spacingBottom=-1;spacingLeft=-1;spacingRight=-1;points=[];labelBackgroundColor=none;rounded=0;html=1;whiteSpace=wrap;" vertex="1" parent="1">
            <mxGeometry x="492" y="784" width="176" height="57" as="geometry" />
          </mxCell>
        </UserObject>
        <mxCell id="rbftyvLKrvMqdOADE280-73" value="&lt;div style=&quot;font-size: 1px&quot;&gt;&lt;font style=&quot;font-size:19.76px;font-family:Times New Roman;color:#000000;direction:ltr;letter-spacing:0px;line-height:120%;opacity:1&quot;&gt;Optimization &lt;br/&gt;&lt;/font&gt;&lt;/div&gt;" style="verticalAlign=top;align=center;overflow=width;vsdxID=370;fillColor=#92cddc;gradientColor=none;shape=stencil(nZBLDoAgDERP0z3SIyjew0SURgSD+Lu9kMZoXLhwN9O+tukAlrNpJg1SzDH4QW/URgNYgZTkjA4UkwJUgGXng+6DX1zLfmoymdXo17xh5zmRJ6Q42BWCfc2oJfdAr+Yv+AP9Cb7OJ3H/2JG1HNGz/84klThPVCc=);strokeColor=#000000;spacingTop=-1;spacingBottom=-1;spacingLeft=-1;spacingRight=-1;points=[[1,0.5,0],[0.5,0.5,0],[0.5,0,0]];labelBackgroundColor=none;rounded=0;html=1;whiteSpace=wrap;" vertex="1" parent="rbftyvLKrvMqdOADE280-72">
          <mxGeometry width="176" height="57" as="geometry" />
        </mxCell>
        <UserObject label="&lt;div style=&quot;font-size: 1px&quot;&gt;&lt;/div&gt;" tags="流程图" id="rbftyvLKrvMqdOADE280-75">
          <mxCell style="verticalAlign=middle;align=center;overflow=width;vsdxID=380;fillColor=#92cddc;gradientColor=none;shape=stencil(nZBLDoAgDERP0z3SIyjew0SURgSD+Lu9kMZoXLhwN9O+tukAlrNpJg1SzDH4QW/URgNYgZTkjA4UkwJUgGXng+6DX1zLfmoymdXo17xh5zmRJ6Q42BWCfc2oJfdAr+Yv+AP9Cb7OJ3H/2JG1HNGz/84klThPVCc=);strokeColor=#000000;spacingTop=-1;spacingBottom=-1;spacingLeft=-1;spacingRight=-1;points=[[1,0.5,0],[0.5,0.5,0],[0.5,0,0]];labelBackgroundColor=none;rounded=0;html=1;whiteSpace=wrap;" vertex="1" parent="1">
            <mxGeometry x="707" y="668" width="12" height="297" as="geometry" />
          </mxCell>
        </UserObject>
        <UserObject label="&lt;div style=&quot;font-size: 1px&quot;&gt;&lt;font style=&quot;font-size:22.58px;font-family:SimSun;color:#000000;direction:ltr;letter-spacing:0px;line-height:120%;opacity:1&quot;&gt;MUX&lt;br/&gt;&lt;/font&gt;&lt;/div&gt;" tags="背景" id="rbftyvLKrvMqdOADE280-76">
          <mxCell style="verticalAlign=middle;align=center;overflow=width;vsdxID=381;fillColor=none;gradientColor=none;shape=stencil(nZBLDoAgDERP0z3SIyjew0SURgSD+Lu9kMZoXLhwN9O+tukAlrNpJg1SzDH4QW/URgNYgZTkjA4UkwJUgGXng+6DX1zLfmoymdXo17xh5zmRJ6Q42BWCfc2oJfdAr+Yv+AP9Cb7OJ3H/2JG1HNGz/84klThPVCc=);strokeColor=none;spacingTop=-1;spacingBottom=-1;spacingLeft=-1;spacingRight=-1;points=[];labelBackgroundColor=none;rounded=0;html=1;whiteSpace=wrap;" vertex="1" parent="1">
            <mxGeometry x="685" y="965" width="55" height="30" as="geometry" />
          </mxCell>
        </UserObject>
        <UserObject label="" tags="连接线" id="rbftyvLKrvMqdOADE280-77">
          <mxCell style="vsdxID=382;edgeStyle=none;startArrow=none;endArrow=block;startSize=5;endSize=5;strokeWidth=3;strokeColor=#0070c0;spacingTop=0;spacingBottom=0;spacingLeft=0;spacingRight=0;verticalAlign=middle;html=1;labelBackgroundColor=#ffffff;rounded=0;" edge="1" parent="1">
            <mxGeometry relative="1" as="geometry">
              <Array as="points" />
              <mxPoint x="707" y="816" as="sourcePoint" />
              <mxPoint x="664" y="816" as="targetPoint" />
            </mxGeometry>
          </mxCell>
        </UserObject>
        <mxCell id="rbftyvLKrvMqdOADE280-78" value="&lt;div style=&quot;font-size: 1px&quot;&gt;&lt;/div&gt;" style="text;vsdxID=382;edgeStyle=none;startArrow=none;endArrow=block;startSize=5;endSize=5;strokeWidth=3;strokeColor=none;spacingTop=0;spacingBottom=0;spacingLeft=0;spacingRight=0;verticalAlign=middle;html=1;labelBackgroundColor=#ffffff;rounded=0;align=center;overflow=width;fillColor=none;gradientColor=none;whiteSpace=wrap;;html=1;;rotation=0.29222399199113624" vertex="1" parent="rbftyvLKrvMqdOADE280-77">
          <mxGeometry width="56.44" height="24.84" relative="1" as="geometry">
            <mxPoint x="-28.22" y="-12.42" as="offset" />
          </mxGeometry>
        </mxCell>
        <mxCell id="rbftyvLKrvMqdOADE280-85" vertex="1" parent="1">
          <mxGeometry x="718" y="929" as="geometry" />
        </mxCell>
        <UserObject label="" tags="连接线" id="rbftyvLKrvMqdOADE280-86">
          <mxCell style="vsdxID=371;edgeStyle=none;startArrow=none;endArrow=block;startSize=5;endSize=5;strokeWidth=3;strokeColor=#0070c0;spacingTop=0;spacingBottom=0;spacingLeft=0;spacingRight=0;verticalAlign=middle;html=1;labelBackgroundColor=#ffffff;rounded=0;exitX=0;exitY=0.5081967213114754;exitDx=0;exitDy=0;exitPerimeter=0;entryX=1;entryY=0.883;entryDx=0;entryDy=0;entryPerimeter=0;" edge="1" parent="1" source="rbftyvLKrvMqdOADE280-67" target="rbftyvLKrvMqdOADE280-75">
            <mxGeometry relative="1" as="geometry">
              <Array as="points" />
            </mxGeometry>
          </mxCell>
        </UserObject>
        <mxCell id="rbftyvLKrvMqdOADE280-90" vertex="1" parent="1">
          <mxGeometry x="485" y="627" as="geometry" />
        </mxCell>
        <mxCell id="rbftyvLKrvMqdOADE280-93" vertex="1" parent="1">
          <mxGeometry x="720" y="699" as="geometry" />
        </mxCell>
        <UserObject label="" tags="连接线" id="rbftyvLKrvMqdOADE280-94">
          <mxCell style="vsdxID=295;edgeStyle=none;startArrow=none;endArrow=block;startSize=5;endSize=5;strokeWidth=3;strokeColor=#0070c0;spacingTop=0;spacingBottom=0;spacingLeft=0;spacingRight=0;verticalAlign=middle;html=1;labelBackgroundColor=#ffffff;rounded=0;exitX=0;exitY=0.5081967213114754;exitDx=0;exitDy=0;exitPerimeter=0;" edge="1" parent="1" source="rbftyvLKrvMqdOADE280-10" target="rbftyvLKrvMqdOADE280-93">
            <mxGeometry relative="1" as="geometry">
              <Array as="points" />
            </mxGeometry>
          </mxCell>
        </UserObject>
        <mxCell id="rbftyvLKrvMqdOADE280-95" value="&lt;div style=&quot;font-size: 1px&quot;&gt;&lt;/div&gt;" style="text;vsdxID=295;edgeStyle=none;startArrow=none;endArrow=block;startSize=5;endSize=5;strokeWidth=3;strokeColor=none;spacingTop=0;spacingBottom=0;spacingLeft=0;spacingRight=0;verticalAlign=middle;html=1;labelBackgroundColor=#ffffff;rounded=0;align=center;overflow=width;fillColor=none;gradientColor=none;whiteSpace=wrap;;html=1;;rotation=538.5802414390998" vertex="1" parent="rbftyvLKrvMqdOADE280-94">
          <mxGeometry width="56.44" height="24.84" relative="1" as="geometry">
            <mxPoint x="-28.22" y="-12.42" as="offset" />
          </mxGeometry>
        </mxCell>
        <mxCell id="rbftyvLKrvMqdOADE280-97" vertex="1" parent="1">
          <mxGeometry x="1073" y="1150" as="geometry" />
        </mxCell>
        <UserObject label="" tags="连接线 流程图 批注" id="rbftyvLKrvMqdOADE280-99">
          <mxCell vertex="1" visible="0" parent="1">
            <mxGeometry x="380" y="340" as="geometry" />
          </mxCell>
        </UserObject>
        <UserObject label="&lt;font size=&quot;3&quot; face=&quot;SimSun&quot;&gt;&lt;span style=&quot;caret-color: rgb(176, 0, 0); color: light-dark(rgb(0, 0, 0), rgb(255, 173, 173));&quot;&gt;&lt;b&gt;Expansion&lt;/b&gt;&lt;/span&gt;&lt;/font&gt;" tags="背景" id="rbftyvLKrvMqdOADE280-102">
          <mxCell style="verticalAlign=middle;align=center;overflow=width;vsdxID=252;fillColor=none;gradientColor=none;shape=stencil(nZBLDoAgDERP0z3SIyjew0SURgSD+Lu9kMZoXLhwN9O+tukAlrNpJg1SzDH4QW/URgNYgZTkjA4UkwJUgGXng+6DX1zLfmoymdXo17xh5zmRJ6Q42BWCfc2oJfdAr+Yv+AP9Cb7OJ3H/2JG1HNGz/84klThPVCc=);strokeColor=none;spacingTop=-1;spacingBottom=-1;spacingLeft=-1;spacingRight=-1;points=[];labelBackgroundColor=none;rounded=0;html=1;whiteSpace=wrap;" vertex="1" parent="1">
            <mxGeometry x="730" y="1029" width="84" height="21" as="geometry" />
          </mxCell>
        </UserObject>
        <mxCell id="rbftyvLKrvMqdOADE280-104" value="&lt;span style=&quot;caret-color: rgb(237, 12, 12); color: rgb(0, 0, 0); font-family: &amp;quot;Times New Roman&amp;quot;; font-size: 18px; font-style: normal; font-variant-caps: normal; font-weight: 400; letter-spacing: normal; text-align: center; text-indent: 0px; text-transform: none; white-space: normal; word-spacing: 0px; -webkit-text-stroke-width: 0px; text-decoration: none; float: none; display: inline !important;&quot;&gt;\(P_F^i(t_p-T_s)\)&lt;/span&gt;" style="text;whiteSpace=wrap;html=1;" vertex="1" parent="1">
          <mxGeometry x="1027" y="699" width="100" height="30" as="geometry" />
        </mxCell>
        <mxCell id="rbftyvLKrvMqdOADE280-106" value="&lt;span style=&quot;caret-color: rgb(237, 12, 12); color: rgb(0, 0, 0); font-family: &amp;quot;Times New Roman&amp;quot;; font-size: 18px; font-style: normal; font-variant-caps: normal; font-weight: 400; letter-spacing: normal; text-align: center; text-indent: 0px; text-transform: none; white-space: normal; word-spacing: 0px; -webkit-text-stroke-width: 0px; text-decoration: none; float: none; display: inline !important;&quot;&gt;\(P_F^i(t_p)\)&lt;/span&gt;" style="text;whiteSpace=wrap;html=1;" vertex="1" parent="1">
          <mxGeometry x="1049" y="779" width="63" height="30" as="geometry" />
        </mxCell>
        <mxCell id="rbftyvLKrvMqdOADE280-107" value="&lt;span style=&quot;caret-color: rgb(237, 12, 12); color: rgb(0, 0, 0); font-family: &amp;quot;Times New Roman&amp;quot;; font-style: normal; font-variant-caps: normal; font-weight: 400; letter-spacing: normal; text-align: center; text-indent: 0px; text-transform: none; white-space: normal; word-spacing: 0px; -webkit-text-stroke-width: 0px; text-decoration: none; float: none; display: inline !important;&quot;&gt;\(P_F^i(t_p+(N_c-1)T_s)\)&lt;/span&gt;" style="text;whiteSpace=wrap;html=1;fontSize=13;" vertex="1" parent="1">
          <mxGeometry x="1002.5" y="897.5" width="127.5" height="30" as="geometry" />
        </mxCell>
        <mxCell id="rbftyvLKrvMqdOADE280-111" value="&lt;span style=&quot;caret-color: rgb(237, 12, 12); color: rgb(0, 0, 0); font-family: &amp;quot;Times New Roman&amp;quot;; font-style: normal; font-variant-caps: normal; font-weight: 400; letter-spacing: normal; text-align: center; text-indent: 0px; text-transform: none; white-space: normal; word-spacing: 0px; -webkit-text-stroke-width: 0px; text-decoration: none; float: none; display: inline !important;&quot;&gt;\(\eta_d^{k\ast}(t_p+(N_c-1)T_s)\)&lt;/span&gt;" style="text;whiteSpace=wrap;html=1;fontSize=13;" vertex="1" parent="1">
          <mxGeometry x="749" y="898.75" width="117" height="27.5" as="geometry" />
        </mxCell>
        <mxCell id="rbftyvLKrvMqdOADE280-112" value="&lt;span style=&quot;caret-color: rgb(237, 12, 12); color: rgb(0, 0, 0); font-family: &amp;quot;Times New Roman&amp;quot;; font-style: normal; font-variant-caps: normal; font-weight: 400; letter-spacing: normal; text-align: center; text-indent: 0px; text-transform: none; white-space: normal; word-spacing: 0px; -webkit-text-stroke-width: 0px; text-decoration: none; float: none; display: inline !important;&quot;&gt;\(\nu_d^{k\ast}(t_p+(N_c-1)T_s)\)&lt;/span&gt;" style="text;whiteSpace=wrap;html=1;fontSize=13;" vertex="1" parent="1">
          <mxGeometry x="744" y="929" width="117" height="27.5" as="geometry" />
        </mxCell>
        <mxCell id="rbftyvLKrvMqdOADE280-113" value="&lt;span style=&quot;caret-color: rgb(237, 12, 12); color: rgb(0, 0, 0); font-family: &amp;quot;Times New Roman&amp;quot;; font-style: normal; font-variant-caps: normal; font-weight: 400; letter-spacing: normal; text-align: center; text-indent: 0px; text-transform: none; white-space: normal; word-spacing: 0px; -webkit-text-stroke-width: 0px; text-decoration: none; float: none; display: inline !important;&quot;&gt;\(\eta_d^{k\ast}(t_p)\)&lt;/span&gt;" style="text;whiteSpace=wrap;html=1;fontSize=19;" vertex="1" parent="1">
          <mxGeometry x="778.5" y="778" width="58" height="31" as="geometry" />
        </mxCell>
        <mxCell id="rbftyvLKrvMqdOADE280-114" value="&lt;span style=&quot;caret-color: rgb(237, 12, 12); color: rgb(0, 0, 0); font-family: &amp;quot;Times New Roman&amp;quot;; font-style: normal; font-variant-caps: normal; font-weight: 400; letter-spacing: normal; text-align: center; text-indent: 0px; text-transform: none; white-space: normal; word-spacing: 0px; -webkit-text-stroke-width: 0px; text-decoration: none; float: none; display: inline !important;&quot;&gt;\(\nu_d^{k\ast}(t_p)\)&lt;/span&gt;" style="text;whiteSpace=wrap;html=1;fontSize=19;" vertex="1" parent="1">
          <mxGeometry x="777.75" y="810.5" width="58.75" height="37.5" as="geometry" />
        </mxCell>
        <mxCell id="rbftyvLKrvMqdOADE280-115" value="&lt;span style=&quot;caret-color: rgb(237, 12, 12); color: rgb(0, 0, 0); font-family: &amp;quot;Times New Roman&amp;quot;; font-style: normal; font-variant-caps: normal; font-weight: 400; letter-spacing: normal; text-align: center; text-indent: 0px; text-transform: none; white-space: normal; word-spacing: 0px; -webkit-text-stroke-width: 0px; text-decoration: none; float: none; display: inline !important;&quot;&gt;\(\eta_d^{k\ast}(t_p)-T_s\)&lt;/span&gt;" style="text;whiteSpace=wrap;html=1;fontSize=19;" vertex="1" parent="1">
          <mxGeometry x="757.12" y="663" width="100" height="31" as="geometry" />
        </mxCell>
        <mxCell id="rbftyvLKrvMqdOADE280-116" value="&lt;span style=&quot;caret-color: rgb(237, 12, 12); color: rgb(0, 0, 0); font-family: &amp;quot;Times New Roman&amp;quot;; font-style: normal; font-variant-caps: normal; font-weight: 400; letter-spacing: normal; text-align: center; text-indent: 0px; text-transform: none; white-space: normal; word-spacing: 0px; -webkit-text-stroke-width: 0px; text-decoration: none; float: none; display: inline !important;&quot;&gt;\(\nu_d^{k\ast}(t_p)-T_s\)&lt;/span&gt;" style="text;whiteSpace=wrap;html=1;fontSize=19;" vertex="1" parent="1">
          <mxGeometry x="756.75" y="699" width="100.37" height="37.5" as="geometry" />
        </mxCell>
        <mxCell id="rbftyvLKrvMqdOADE280-117" value="&lt;span style=&quot;caret-color: rgb(237, 12, 12); color: rgb(0, 0, 0); font-style: normal; font-variant-caps: normal; font-weight: 400; letter-spacing: normal; text-align: center; text-indent: 0px; text-transform: none; white-space: normal; word-spacing: 0px; -webkit-text-stroke-width: 0px; text-decoration: none; float: none; display: inline !important;&quot;&gt;&lt;font face=&quot;Times New Roman&quot;&gt;\(J=\underset{\Delta \tilde{\nu}_{d}^{k}(t_{p})}{\mathop{\min}}\left\|\bar{\eta}_d^k-\eta_d^{k\ast} \right\|_Q^2+\left\|\Delta\tilde{\nu}_d^k (t_p) \right\|_R^2}}\)&lt;/font&gt;&lt;/span&gt;" style="text;whiteSpace=wrap;html=1;fontSize=19;" vertex="1" parent="1">
          <mxGeometry x="500" y="309" width="1831" height="31" as="geometry" />
        </mxCell>
        <mxCell id="rbftyvLKrvMqdOADE280-118" value="&lt;span style=&quot;caret-color: light-dark(rgb(237, 12, 12), rgb(255, 145, 145)); color: light-dark(rgb(0, 0, 0), rgb(237, 237, 237)); font-style: normal; font-variant-caps: normal; font-weight: 400; letter-spacing: normal; text-align: center; text-indent: 0px; text-transform: none; white-space: normal; word-spacing: 0px; -webkit-text-stroke-width: 0px; text-decoration: none; font-family: &amp;quot;Helvetica Neue&amp;quot;;&quot; data-mx-given-colors=&quot;{&amp;quot;caret-color&amp;quot;:&amp;quot;rgb(237, 12, 12)&amp;quot;,&amp;quot;color&amp;quot;:&amp;quot;rgb(0, 0, 0)&amp;quot;}&quot;&gt;\underset{\Delta \tilde{\nu}_{d}^{k}(t_{p})}{\mathop{\min}} \left\| \bar{\eta}_{d}^{k} - \eta_{d}^{k\ast}&lt;/span&gt;&lt;span style=&quot;caret-color: light-dark(rgb(237, 12, 12), rgb(255, 145, 145)); color: light-dark(rgb(0, 0, 0), rgb(237, 237, 237)); font-style: normal; font-variant-caps: normal; font-weight: 400; letter-spacing: normal; text-align: center; text-indent: 0px; text-transform: none; white-space: normal; word-spacing: 0px; -webkit-text-stroke-width: 0px; text-decoration: none; font-family: &amp;quot;Helvetica Neue&amp;quot;;&quot; data-mx-given-colors=&quot;{&amp;quot;caret-color&amp;quot;:&amp;quot;rgb(237, 12, 12)&amp;quot;,&amp;quot;color&amp;quot;:&amp;quot;rgb(0, 0, 0)&amp;quot;}&quot;&gt;&amp;nbsp;&lt;span class=&quot;Apple-converted-space&quot;&gt;&amp;nbsp;&lt;/span&gt;&lt;/span&gt;&lt;span style=&quot;caret-color: light-dark(rgb(237, 12, 12), rgb(255, 145, 145)); color: light-dark(rgb(0, 0, 0), rgb(237, 237, 237)); font-style: normal; font-variant-caps: normal; font-weight: 400; letter-spacing: normal; text-align: center; text-indent: 0px; text-transform: none; white-space: normal; word-spacing: 0px; -webkit-text-stroke-width: 0px; text-decoration: none; font-family: &amp;quot;Helvetica Neue&amp;quot;;&quot; data-mx-given-colors=&quot;{&amp;quot;caret-color&amp;quot;:&amp;quot;rgb(237, 12, 12)&amp;quot;,&amp;quot;color&amp;quot;:&amp;quot;rgb(0, 0, 0)&amp;quot;}&quot;&gt;\right\|_Q^2 + \left\| \Delta \tilde{\nu}_{d}^{k}(t_{p}) \right\|_R^2&lt;/span&gt;" style="text;whiteSpace=wrap;html=1;fontSize=19;" vertex="1" parent="1">
          <mxGeometry x="520" y="200" width="1890" height="90" as="geometry" />
        </mxCell>
      </root>
    </mxGraphModel>
  </diagram>
</mxfile>
